#!OML:ASF E:\Mandelcareful walks\Project 1\Capture day 1\Session 1\Subject1.ASF
:FULLY-SPECIFIED
:DEGREES
550
root -1.44551 12.21 -1.78611 195.351 60.8351 169.459
lowerback 47.1982 14.4074 -12.0085
upperback 11.4958 14.4237 -1.71562
thorax -7.45622 7.61268 -2.57921
lowerneck -34.5909 -5.3441 -7.23506
upperneck 23.2391 -3.21431 -0.93998
head 13.6622 -2.16882 0.107493
rclavicle 6.99722e-014 3.65764e-014
rhumerus 56.3258 -0.691617 -75.1474
rradius 31.9634
rwrist -36.7373
rhand -15.4431 -41.3443
rfingers 7.12502
rthumb 10.7374 -71.0499
lclavicle 6.99722e-014 3.65764e-014
lhumerus -12.7242 -24.7099 72.134
lradius 61.1771
lwrist 28.7686
lhand -25.675 -17.9276
lfingers 7.12502
lthumb 0.859616 12.0504
rfemur -52.101 -34.6828 0.838737
rtibia 102.388
rfoot -34.1185 -14.7294
rtoes -40.136
lfemur -91.6317 20.4653 -28.2303
ltibia 95.857
lfoot -14.7175 -30.0152
ltoes 26.3783
551
root -1.45935 12.234 -1.73391 195.179 60.2783 169.138
lowerback 47.3156 14.0972 -12.158
upperback 11.3607 13.9626 -1.56552
thorax -7.6684 7.39254 -2.19384
lowerneck -34.3129 -5.43033 -7.21477
upperneck 23.017 -3.41841 -0.833168
head 13.5262 -2.23663 0.111476
rclavicle 7.31528e-014 -1.66979e-014
rhumerus 55.0159 0.393521 -73.7128
rradius 34.4937
rwrist -38.5628
rhand -15.1546 -41.899
rfingers 7.12502
rthumb 11.0156 -71.59
lclavicle 7.31528e-014 -1.66979e-014
lhumerus -13.0526 -24.3658 72.1613
lradius 61.1071
lwrist 28.7917
lhand -25.7968 -17.7795
lfingers 7.12502
lthumb 0.742022 12.1989
rfemur -51.9978 -35.2403 0.880258
rtibia 102.289
rfoot -34.0916 -14.6818
rtoes -40.1436
lfemur -91.6901 19.8849 -28.2942
ltibia 95.5618
lfoot -14.6746 -29.7564
ltoes 25.6169
552
root -1.46609 12.2609 -1.69072 195.052 59.9528 169.037
lowerback 47.5505 13.889 -12.242
upperback 11.1946 13.6195 -1.5123
thorax -7.899 7.23237 -1.99994
lowerneck -34.1517 -5.47338 -7.10402
upperneck 22.9254 -3.61303 -0.680481
head 13.4643 -2.28895 0.118015
rclavicle 0 1.27222e-014
rhumerus 53.5481 1.49957 -72.4864
rradius 36.9032
rwrist -40.0978
rhand -14.3427 -42.4363
rfingers 7.12502
rthumb 11.7986 -72.084
lclavicle 0 1.27222e-014
lhumerus -13.3232 -24.2571 71.9987
lradius 61.0533
lwrist 28.9024
lhand -25.7141 -17.7599
lfingers 7.12502
lthumb 0.821881 12.2182
rfemur -51.7701 -35.5151 0.986036
rtibia 102.106
rfoot -34.3459 -14.5303
rtoes -40.1086
lfemur -91.6162 19.5893 -28.3095
ltibia 95.288
lfoot -15.1417 -29.3153
ltoes 23.6961
553
root -1.4668 12.2794 -1.66613 194.958 59.933 169.177
lowerback 47.7198 13.7627 -12.1837
upperback 11.1206 13.4605 -1.51747
thorax -7.99753 7.1626 -1.98459
lowerneck -33.9205 -5.58175 -7.02872
upperneck 22.7302 -3.86963 -0.569872
head 13.3494 -2.37575 0.102968
rclavicle 0 4.53229e-014
rhumerus 52.1055 2.32203 -71.5848
rradius 39.1364
rwrist -41.1291
rhand -13.8499 -42.9511
rfingers 7.12502
rthumb 12.2738 -72.571
lclavicle 0 4.53229e-014
lhumerus -13.5205 -24.4527 71.8144
lradius 61.0493
lwrist 29.0713
lhand -25.6286 -17.7982
lfingers 7.12502
lthumb 0.904436 12.1796
rfemur -51.4076 -35.5393 1.11124
rtibia 101.876
rfoot -34.7363 -14.3853
rtoes -40.0471
lfemur -91.3297 19.6187 -28.0744
ltibia 95.1133
lfoot -15.4386 -29.0568
ltoes 22.4904
554
root -1.46794 12.2943 -1.64296 194.876 59.8691 169.336
lowerback 47.7054 13.5662 -12.2266
upperback 11.1874 13.2448 -1.34272
thorax -7.96266 7.06037 -1.67903
lowerneck -33.8414 -5.74088 -7.39788
upperneck 22.6371 -3.9789 -0.361773
head 13.3152 -2.42379 0.223233
rclavicle 3.18055e-015 5.80451e-014
rhumerus 50.9764 3.38501 -70.2737
rradius 41.258
rwrist -42.4115
rhand -13.9211 -43.4662
rfingers 7.12502
rthumb 12.2052 -73.0901
lclavicle 3.18055e-015 5.80451e-014
lhumerus -13.7081 -24.2682 71.913
lradius 60.9517
lwrist 29.1151
lhand -25.8017 -17.7029
lfingers 7.12502
lthumb 0.737243 12.2756
rfemur -50.9414 -35.735 1.2477
rtibia 101.615
rfoot -35.1005 -14.1557
rtoes -39.8516
lfemur -90.9975 19.5741 -27.7099
ltibia 94.9827
lfoot -15.4108 -28.9534
ltoes 22.2037
